<svg width="174" height="174" viewBox="0 0 174 174" fill="none" xmlns="http://www.w3.org/2000/svg">
<path opacity="0.2" d="M31.12 27.0503C25.3155 27.0503 20.6425 37.5278 20.6425 37.5278C20.6425 37.5278 25.3155 48.0053 31.12 48.0053H84.8171C83.0281 48.6199 81.4645 49.9968 80.6698 51.7165L59.7148 93.6264C58.0412 97.1943 60.1171 102.003 63.8621 103.231L76.5224 107.596V124.622C76.5228 128.28 79.8502 131.607 83.5074 131.607H90.4924C94.1496 131.607 97.4771 128.28 97.4774 124.622V107.596L110.138 103.231C113.882 102.003 115.959 97.1943 114.285 93.6264L93.3301 51.7165C92.4067 49.7928 90.602 48.4705 88.5279 48.0053H142.88C148.684 48.0053 153.357 37.5278 153.357 37.5278C153.357 37.5278 148.684 27.0503 142.88 27.0503H31.12Z" fill="#5DD9C2"/>
<path d="M85.6903 40.8025C83.5234 41.2216 81.5956 42.7282 80.6698 44.7315L59.7148 86.6414C58.0412 90.2094 60.1172 95.0178 63.8622 96.2458L76.5225 100.611V117.637C76.5228 121.295 79.8502 124.622 83.5074 124.622H90.4924C94.1496 124.622 97.4771 121.295 97.4774 117.637V100.611L110.138 96.2458C113.882 95.0178 115.959 90.2094 114.285 86.6414L93.3301 44.7315C92.099 42.1666 89.1764 40.5224 86.3451 40.8025C86.1272 40.7955 85.9082 40.7955 85.6903 40.8025Z" fill="#5DD9C2"/>
<path d="M86.9999 47.7876L66.0449 89.6975L83.5074 95.5907V117.637H90.4924V95.5907L107.955 89.6975L86.9999 47.7876Z" fill="#FEFEFE"/>
<path d="M20.6427 29.8116V31.0083C20.6427 36.5608 25.3337 41.062 31.1202 41.062L142.88 41.062C148.666 41.062 153.357 36.5608 153.357 31.0083V29.8116C153.357 24.259 148.666 19.7579 142.88 19.7579L31.1202 19.7579C25.3337 19.7579 20.6427 24.259 20.6427 29.8116Z" fill="#5DD9C2"/>
<path d="M27.6278 34.0774V27.0924L146.372 27.0924V34.0774L27.6278 34.0774Z" fill="#FEFEFE"/>
</svg>
