<svg width="388" height="277" viewBox="0 0 388 277" fill="none" xmlns="http://www.w3.org/2000/svg">
<rect width="388" height="276.336" rx="40" fill="#CACB6F"/>
<path d="M0 178.607H388V236.336C388 258.427 370.091 276.336 348 276.336H40C17.9086 276.336 0 258.427 0 236.336V178.607Z" fill="#CACB6F"/>
<path d="M120.462 85.704C123.47 85.704 126.174 86.328 128.574 87.576L127.422 93L126.894 93.24C125.934 92.568 124.878 92.04 123.726 91.656C122.574 91.272 121.39 91.08 120.174 91.08C115.086 91.08 112.542 94.424 112.542 101.112C112.542 104.728 113.198 107.448 114.51 109.272C115.854 111.064 117.806 111.96 120.366 111.96C121.55 111.96 122.766 111.784 124.014 111.432C125.294 111.048 126.446 110.536 127.47 109.896L128.046 110.232L127.518 115.752C125.086 116.872 122.526 117.432 119.838 117.432C115.23 117.432 111.71 116.088 109.278 113.4C106.878 110.712 105.678 106.856 105.678 101.832C105.678 96.712 106.958 92.744 109.518 89.928C112.11 87.112 115.758 85.704 120.462 85.704Z" fill="#83AC70"/>
<path d="M173.819 104.712C176.315 108.68 178.795 112.264 181.259 115.464L181.163 116.184C179.083 116.92 176.955 117.352 174.779 117.48L174.107 116.952C171.803 112.984 169.931 109.528 168.491 106.584H163.835V107.208L164.123 117H157.595L157.931 107.784L157.595 86.088L169.451 86.04C172.683 86.04 175.179 86.84 176.939 88.44C178.699 90.008 179.579 92.264 179.579 95.208C179.579 97.192 179.067 99.016 178.043 100.68C177.051 102.312 175.643 103.656 173.819 104.712ZM163.931 101.544L168.683 101.736C171.403 100.808 172.763 98.84 172.763 95.832C172.763 94.2 172.315 92.984 171.419 92.184C170.555 91.352 169.211 90.904 167.387 90.84L164.123 91.032L163.931 101.544Z" fill="#A85185"/>
<path d="M234.387 101.784L234.339 105.864C234.371 109.544 233.299 112.392 231.123 114.408C228.947 116.424 225.827 117.432 221.763 117.432C217.859 117.432 214.883 116.456 212.835 114.504C210.787 112.552 209.811 109.752 209.907 106.104L209.955 101.64L209.811 86.088H216.339L216.003 105.24C215.971 107.576 216.467 109.304 217.491 110.424C218.515 111.544 220.067 112.104 222.147 112.104C226.307 112.104 228.371 109.928 228.339 105.576L228.003 86.088H234.627L234.387 101.784Z" fill="#6E4D89"/>
<path d="M278.389 85.896C282.869 85.896 286.309 87.144 288.709 89.64C291.109 92.136 292.309 95.72 292.309 100.392C292.309 105.864 290.965 110.056 288.277 112.968C285.589 115.88 281.749 117.336 276.757 117.336C275.253 117.336 273.445 117.304 271.333 117.24C269.253 117.176 267.461 117.096 265.957 117L266.293 107.784L265.957 86.088L278.389 85.896ZM277.909 112.296C282.997 112.296 285.541 108.824 285.541 101.88C285.541 98.104 284.917 95.368 283.669 93.672C282.453 91.944 280.533 91.08 277.909 91.08C276.213 91.08 274.405 91.16 272.485 91.32L272.197 107.208L272.341 111.96C274.581 112.184 276.437 112.296 277.909 112.296ZM124.424 169.272L124.28 177.624L128.6 177.672L133.832 177.528L134.264 178.008L133.784 182.856L128.072 182.712L124.184 182.76L124.136 185.208L124.424 195H117.896L118.232 185.784L117.896 164.088H136.28L136.664 164.616L136.184 169.512L128.84 169.224L124.424 169.272ZM161.415 195H155.319L154.647 191.496L154.215 190.104L149.319 190.056L144.999 190.152L144.663 191.16L143.943 195H138.039L146.535 170.76H153.687L161.415 195ZM152.919 185.544L150.183 176.28H149.799L146.583 185.544L149.703 185.592L152.919 185.544ZM177.126 170.424C179.43 170.424 181.638 170.824 183.75 171.624L182.838 177L181.974 177.24C180.95 176.472 179.958 175.896 178.998 175.512C178.038 175.128 177.158 174.936 176.358 174.936C175.462 174.936 174.758 175.16 174.246 175.608C173.734 176.024 173.478 176.536 173.478 177.144C173.478 177.816 173.798 178.376 174.438 178.824C175.078 179.24 176.086 179.736 177.462 180.312C178.902 180.92 180.07 181.48 180.966 181.992C181.894 182.504 182.678 183.224 183.318 184.152C183.99 185.048 184.326 186.184 184.326 187.56C184.326 188.936 183.958 190.232 183.222 191.448C182.518 192.632 181.43 193.592 179.958 194.328C178.518 195.064 176.726 195.432 174.582 195.432C173.43 195.432 172.166 195.304 170.79 195.048C169.446 194.824 168.134 194.456 166.854 193.944L167.67 188.28L168.294 187.848C169.35 188.808 170.534 189.576 171.846 190.152C173.158 190.728 174.326 191.016 175.35 191.016C176.246 191.016 176.966 190.792 177.51 190.344C178.086 189.896 178.374 189.336 178.374 188.664C178.374 187.96 178.038 187.4 177.366 186.984C176.726 186.536 175.718 186.04 174.342 185.496C172.902 184.888 171.718 184.328 170.79 183.816C169.894 183.272 169.11 182.536 168.438 181.608C167.798 180.68 167.478 179.528 167.478 178.152C167.478 176.712 167.862 175.4 168.63 174.216C169.43 173.032 170.55 172.104 171.99 171.432C173.462 170.76 175.174 170.424 177.126 170.424ZM208.499 171.24L208.163 175.848L203.267 175.512H201.875L201.731 187.224L201.923 195H195.923L196.163 187.8L196.067 175.512H194.675L189.683 175.848L189.299 175.368L189.635 170.76H208.163L208.499 171.24ZM237.612 195H230.988L230.22 190.968L229.404 188.088L223.356 187.944L218.028 188.088L217.212 190.632L216.396 195H209.964L220.428 164.088H228.156L237.612 195ZM228.012 183.048L224.364 170.184H223.932L219.708 183.048L223.836 183.144L228.012 183.048ZM256.361 164.04C259.593 164.04 262.073 164.856 263.801 166.488C265.561 168.12 266.441 170.456 266.441 173.496C266.441 175.832 265.929 177.88 264.905 179.64C263.881 181.368 262.409 182.712 260.489 183.672C258.601 184.632 256.377 185.112 253.817 185.112H250.745V185.208L251.033 195H244.505L244.841 185.784L244.505 164.088L256.361 164.04ZM255.257 180.36C258.201 179.528 259.673 177.432 259.673 174.072C259.673 172.344 259.225 171.064 258.329 170.232C257.465 169.368 256.121 168.904 254.297 168.84L251.033 169.032L250.841 180.168L255.257 180.36ZM279.676 185.208L279.964 195H273.436L273.772 185.784L273.436 164.088H280.06L279.676 185.208Z" fill="#284971"/>
</svg>
