<svg width="388" height="277" viewBox="0 0 388 277" fill="none" xmlns="http://www.w3.org/2000/svg">
<rect width="388" height="276.336" rx="40" fill="#284971"/>
<path d="M0 178.607H388V236.336C388 258.427 370.091 276.336 348 276.336H40C17.9086 276.336 0 258.427 0 236.336V178.607Z" fill="#284971"/>
<g clip-path="url(#clip0_0_1)">
<path d="M270.806 163.813C259.19 193.32 231.388 214.095 198.937 214.095C189.389 214.095 180.24 212.288 171.783 209.003C173.004 206.53 173.627 203.452 173.627 199.744C173.627 197.124 172.987 192.568 171.706 186.075C169.888 176.963 169.048 166.285 169.178 154.061C171.939 156.931 174.761 159.101 177.661 160.579C180.552 162.058 183.521 162.793 186.542 162.793C191.051 162.793 196.383 160.916 202.546 157.164C208.709 153.412 215.219 146.764 222.083 137.236C222.689 146.599 224.472 153.179 227.432 156.983C230.392 160.778 234.365 162.68 239.342 162.68C244.32 162.68 248.561 160.527 251.859 156.222C255.157 151.916 257.381 144.118 258.524 132.81H254.386C253.711 139.052 252.655 143.228 251.21 145.337C249.764 147.447 248.197 148.501 246.518 148.501C245.168 148.501 243.895 147.87 242.684 146.599C241.472 145.337 240.563 143.271 239.957 140.401C239.213 136.354 238.849 129.265 238.849 119.141V63.464C253.019 72.3429 264.254 85.7954 270.668 101.867H292.316C279.722 61.0086 243.021 31.4323 199.707 31.4323C145.98 31.4323 102.433 76.9078 102.433 133C102.433 189.092 145.98 234.568 199.707 234.568C243.142 234.568 279.921 204.844 292.42 163.813H270.815H270.806ZM222.091 55.5965V130.138C217.175 135.957 212.327 140.176 207.549 142.795C202.771 145.415 198.634 146.72 195.128 146.72C192.168 146.72 189.208 145.622 186.247 143.427C183.287 141.231 181.236 138.239 180.084 134.444C178.942 130.648 178.371 124.45 178.371 115.839V54.8098C184.923 52.9424 191.813 51.9308 198.928 51.9308C206.995 51.9308 214.777 53.219 222.091 55.5965ZM121.251 133.009C121.251 102.438 137.463 75.8184 161.405 62.0029V143.677C161.405 150.767 160.998 159.369 160.193 169.493C159.717 175.398 158.54 182.314 156.662 190.251C155.857 193.795 155.45 196.744 155.45 199.112C155.45 199.493 155.467 199.865 155.485 200.236C134.832 185.66 121.251 160.994 121.251 133.017V133.009Z" fill="#CACB6F" stroke="#CACB6F" stroke-miterlimit="10"/>
</g>
<defs>
<clipPath id="clip0_0_1">
<rect width="191" height="204" fill="white" transform="translate(102 31)"/>
</clipPath>
</defs>
</svg>
